<?xml version="1.0" encoding="iso-8859-1"?>
<!DOCTYPE svg PUBLIC "-//W3C//DTD SVG 1.0//EN" "http://www.w3.org/TR/2001/REC-SVG-20010904/DTD/svg10.dtd">
<!-- Creator: CorelDRAW -->
<svg xmlns="http://www.w3.org/2000/svg" xmlns:odm="http://product.corel.com/CGS/11/cddns/" xml:space="preserve" width="250mm" height="90mm" shape-rendering="geometricPrecision" text-rendering="geometricPrecision" image-rendering="optimizeQuality" fill-rule="evenodd"
     viewBox="0 0 25000 9000">
 <g id="Layer 1">
  <g>
   <text x="10350" y="2325" fill="#1F1A17" font-weight="normal" font-size="635" font-family="Arial">Spurweite</text>
   <path fill="#1F1A17" d="M4255 4379l409 0c92,0 167,74 167,165l0 194c0,90 -126,149 -190,164 -63,16 -79,47 -78,85l28 752c2,48 51,95 98,105l456 103c33,7 65,42 65,75l0 107 -1500 0 0 -116c0,-29 29,-59 58,-65l468 -105c47,-10 90,-62 92,-110l28 -746c1,-38 -15,-69 -78,-85 -63,-15 -190,-74 -190,-164l0 -194c0,-91 75,-165 167,-165z"/>
   <path fill="#1F1A17" d="M20255 4379l409 0c92,0 167,74 167,165l0 194c0,90 -126,149 -190,164 -63,16 -79,47 -78,85l28 752c2,48 51,95 98,105l456 103c33,7 65,42 65,75l0 107 -1500 0 0 -116c0,-29 29,-59 58,-65l468 -105c47,-10 90,-62 92,-110l28 -746c1,-38 -15,-69 -78,-85 -63,-15 -190,-74 -190,-164l0 -194c0,-91 75,-165 167,-165z"/>
   <g>
    <path fill="none" stroke="#1F1A17" stroke-width="35" d="M2360 6129l20780 0"/>
    <path fill="none" stroke="#1F1A17" stroke-width="35" d="M3360 6129l-1000 1000"/>
    <path fill="none" stroke="#1F1A17" stroke-width="35" d="M2860 6129l-1000 1000"/>
    <path fill="none" stroke="#1F1A17" stroke-width="35" d="M3860 6129l-1000 1000"/>
    <path fill="none" stroke="#1F1A17" stroke-width="35" d="M4360 6129l-1000 1000"/>
    <path fill="none" stroke="#1F1A17" stroke-width="35" d="M4860 6129l-1000 1000"/>
    <path fill="none" stroke="#1F1A17" stroke-width="35" d="M5360 6129l-1000 1000"/>
    <path fill="none" stroke="#1F1A17" stroke-width="35" d="M5860 6129l-1000 1000"/>
    <path fill="none" stroke="#1F1A17" stroke-width="35" d="M6360 6129l-1000 1000"/>
    <path fill="none" stroke="#1F1A17" stroke-width="35" d="M6860 6129l-1000 1000"/>
    <path fill="none" stroke="#1F1A17" stroke-width="35" d="M7360 6129l-1000 1000"/>
    <path fill="none" stroke="#1F1A17" stroke-width="35" d="M7860 6129l-1000 1000"/>
    <path fill="none" stroke="#1F1A17" stroke-width="35" d="M8360 6129l-1000 1000"/>
    <path fill="none" stroke="#1F1A17" stroke-width="35" d="M8860 6129l-1000 1000"/>
    <path fill="none" stroke="#1F1A17" stroke-width="35" d="M9360 6129l-1000 1000"/>
    <path fill="none" stroke="#1F1A17" stroke-width="35" d="M9860 6129l-1000 1000"/>
    <path fill="none" stroke="#1F1A17" stroke-width="35" d="M10360 6129l-1000 1000"/>
    <path fill="none" stroke="#1F1A17" stroke-width="35" d="M10860 6129l-1000 1000"/>
    <path fill="none" stroke="#1F1A17" stroke-width="35" d="M11360 6129l-1000 1000"/>
    <path fill="none" stroke="#1F1A17" stroke-width="35" d="M11860 6129l-1000 1000"/>
    <path fill="none" stroke="#1F1A17" stroke-width="35" d="M12360 6129l-1000 1000"/>
    <path fill="none" stroke="#1F1A17" stroke-width="35" d="M12860 6129l-1000 1000"/>
    <path fill="none" stroke="#1F1A17" stroke-width="35" d="M13360 6129l-1000 1000"/>
    <path fill="none" stroke="#1F1A17" stroke-width="35" d="M13860 6129l-1000 1000"/>
    <path fill="none" stroke="#1F1A17" stroke-width="35" d="M14360 6129l-1000 1000"/>
    <path fill="none" stroke="#1F1A17" stroke-width="35" d="M14860 6129l-1000 1000"/>
    <path fill="none" stroke="#1F1A17" stroke-width="35" d="M15360 6129l-1000 1000"/>
    <path fill="none" stroke="#1F1A17" stroke-width="35" d="M15860 6129l-1000 1000"/>
    <path fill="none" stroke="#1F1A17" stroke-width="35" d="M16360 6129l-1000 1000"/>
    <path fill="none" stroke="#1F1A17" stroke-width="35" d="M16860 6129l-1000 1000"/>
    <path fill="none" stroke="#1F1A17" stroke-width="35" d="M17360 6129l-1000 1000"/>
    <path fill="none" stroke="#1F1A17" stroke-width="35" d="M17860 6129l-1000 1000"/>
    <path fill="none" stroke="#1F1A17" stroke-width="35" d="M18360 6129l-1000 1000"/>
    <path fill="none" stroke="#1F1A17" stroke-width="35" d="M18860 6129l-1000 1000"/>
    <path fill="none" stroke="#1F1A17" stroke-width="35" d="M19360 6129l-1000 1000"/>
    <path fill="none" stroke="#1F1A17" stroke-width="35" d="M19860 6129l-1000 1000"/>
    <path fill="none" stroke="#1F1A17" stroke-width="35" d="M20360 6129l-1000 1000"/>
    <path fill="none" stroke="#1F1A17" stroke-width="35" d="M20860 6129l-1000 1000"/>
    <path fill="none" stroke="#1F1A17" stroke-width="35" d="M21360 6129l-1000 1000"/>
    <path fill="none" stroke="#1F1A17" stroke-width="35" d="M21860 6129l-1000 1000"/>
    <path fill="none" stroke="#1F1A17" stroke-width="35" d="M22360 6129l-1000 1000"/>
    <path fill="none" stroke="#1F1A17" stroke-width="35" d="M22860 6129l-1000 1000"/>
   </g>
   <path fill="none" stroke="#DA251D" stroke-width="35" d="M20092 4495l0 -2370"/>
   <path fill="none" stroke="#DA251D" stroke-width="35" d="M4852 4525l0 -2400"/>
   <g>
    <path fill="#DA251D" d="M4853 2715l249 -107 0 0 -4 7 -3 6 -2 7 -3 7 -2 6 -3 7 -2 7 -1 6 -2 7 -1 7 -1 6 -1 7 -1 7 -1 6 0 7 0 7 0 6 0 7 1 7 1 6 1 7 1 7 1 6 2 7 1 7 2 6 3 7 2 7 3 7 2 6 3 7 4 7 -249 -107 0 0z"/>
    <path fill="#DA251D" d="M19989 2697l-15011 0 0 35 15011 0z"/>
    <path fill="#DA251D" d="M20114 2715l-249 -107 0 0 4 7 3 6 2 7 3 7 2 6 3 7 2 7 1 6 2 7 1 7 1 6 1 7 1 7 1 6 0 7 0 7 0 6 0 7 -1 7 -1 6 -1 7 -1 7 -1 6 -2 7 -1 7 -2 7 -3 6 -2 7 -3 7 -2 6 -3 7 -4 7 249 -107 0 0z"/>
   </g>
  </g>
 </g>
</svg>
